<svg xmlns="http://www.w3.org/2000/svg" id="canvas" viewBox="550.795 326.118 246.464 209.372"><path d="M 565.14,354.43 C 564.23 355.85, 564.25 357.42, 563.87 361.76 C 563.50 366.11, 563.62 368.89, 563.26 376.14 C 562.91 383.39, 562.69 388.26, 562.10 398.00 C 561.51 407.74, 561.08 413.72, 560.33 424.85 C 559.58 435.98, 559.13 442.35, 558.34 453.64 C 557.55 464.93, 557.07 470.97, 556.39 481.32 C 555.71 491.67, 555.45 497.02, 554.94 505.39 C 554.43 513.76, 553.96 517.82, 553.83 523.16 C 553.71 528.50, 553.90 530.74, 554.32 532.08 C 554.73 533.42, 555.81 530.29, 555.92 529.84 C 556.04 529.39, 554.79 529.37, 554.90 529.84 C 555.01 530.30, 555.94 533.48, 556.47 532.18 C 557.01 530.87, 557.32 528.63, 557.58 523.30 C 557.84 517.96, 557.51 513.88, 557.76 505.51 C 558.00 497.15, 558.21 491.81, 558.80 481.47 C 559.38 471.12, 559.86 465.09, 560.67 453.81 C 561.48 442.52, 561.96 436.15, 562.85 425.04 C 563.75 413.92, 564.28 407.95, 565.14 398.23 C 565.99 388.50, 566.44 383.64, 567.14 376.42 C 567.83 369.20, 568.35 366.46, 568.60 362.11 C 568.86 357.76, 569.12 356.21, 568.42 354.67 C 567.73 353.14, 566.05 353.01, 565.14 354.43" style="stroke: black; fill: black;"/><path d="M 557.01,357.94 C 556.33 358.80, 555.84 359.17, 556.16 361.18 C 556.49 363.20, 557.04 364.34, 558.64 368.01 C 560.25 371.68, 561.65 374.32, 564.19 379.54 C 566.74 384.75, 568.19 388.36, 571.37 394.10 C 574.54 399.84, 576.38 403.20, 580.06 408.22 C 583.75 413.23, 585.66 415.78, 589.79 419.17 C 593.92 422.56, 596.21 424.03, 600.73 425.15 C 605.24 426.28, 607.80 426.30, 612.37 424.80 C 616.93 423.31, 619.19 421.67, 623.54 417.68 C 627.89 413.69, 630.01 410.89, 634.12 404.84 C 638.23 398.78, 640.29 394.83, 644.10 387.42 C 647.90 380.01, 649.88 375.28, 653.14 367.79 C 656.40 360.30, 657.94 356.13, 660.39 349.97 C 662.85 343.81, 664.23 340.85, 665.40 336.98 C 666.57 333.11, 666.62 331.57, 666.25 330.61 C 665.87 329.65, 664.09 329.80, 663.52 332.19 C 662.95 334.57, 663.44 336.79, 663.42 342.55 C 663.40 348.30, 663.51 352.37, 663.42 360.97 C 663.32 369.57, 663.19 375.09, 662.93 385.56 C 662.68 396.02, 662.44 402.25, 662.14 413.28 C 661.84 424.30, 661.60 430.32, 661.46 440.68 C 661.31 451.05, 661.25 456.27, 661.43 465.12 C 661.61 473.97, 661.79 478.14, 662.36 484.92 C 662.93 491.70, 663.36 494.55, 664.26 499.04 C 665.15 503.52, 665.66 505.09, 666.84 507.34 C 668.02 509.59, 669.16 509.90, 670.15 510.30 C 671.15 510.69, 671.61 510.24, 671.80 509.30 C 671.98 508.36, 671.75 507.85, 671.08 505.60 C 670.41 503.36, 669.55 502.28, 668.45 498.07 C 667.35 493.87, 666.44 491.18, 665.57 484.58 C 664.70 477.97, 664.44 473.82, 664.10 465.04 C 663.77 456.27, 663.80 451.05, 663.90 440.71 C 664.00 430.38, 664.25 424.36, 664.61 413.35 C 664.97 402.34, 665.23 396.11, 665.72 385.66 C 666.21 375.20, 666.53 369.69, 667.04 361.10 C 667.55 352.50, 667.92 348.52, 668.27 342.70 C 668.62 336.89, 669.55 334.67, 668.81 332.00 C 668.07 329.33, 666.14 328.69, 664.55 329.37 C 662.97 330.05, 662.42 331.55, 660.89 335.40 C 659.35 339.26, 659.05 342.45, 656.89 348.66 C 654.72 354.87, 653.23 359.03, 650.07 366.47 C 646.90 373.91, 644.89 378.60, 641.08 385.85 C 637.27 393.09, 635.10 396.95, 631.02 402.68 C 626.94 408.40, 624.68 410.93, 620.66 414.47 C 616.63 418.00, 614.66 419.11, 610.90 420.33 C 607.15 421.56, 605.53 421.52, 601.87 420.60 C 598.21 419.68, 596.27 418.71, 592.60 415.73 C 588.93 412.75, 586.97 410.44, 583.53 405.69 C 580.09 400.94, 578.26 397.63, 575.40 391.97 C 572.55 386.30, 571.25 382.69, 569.26 377.36 C 567.26 372.03, 566.80 369.04, 565.44 365.30 C 564.08 361.55, 563.65 360.30, 562.47 358.62 C 561.30 356.94, 560.66 357.03, 559.56 356.89 C 558.47 356.75, 557.69 357.08, 557.01 357.94" style="stroke: black; fill: black;"/><path d="M 788.86,372.93 C 790.26 372.27, 791.41 370.92, 791.91 368.73 C 792.40 366.54, 792.51 364.66, 791.33 362.00 C 790.15 359.34, 789.03 357.04, 786.02 355.44 C 783.00 353.85, 780.73 353.68, 776.27 354.04 C 771.82 354.39, 769.23 355.06, 763.73 357.23 C 758.22 359.39, 754.97 360.79, 748.74 364.87 C 742.51 368.94, 738.88 371.62, 732.60 377.61 C 726.31 383.61, 722.83 387.38, 717.30 394.82 C 711.77 402.26, 708.91 406.68, 704.95 414.79 C 701.00 422.91, 699.26 427.52, 697.55 435.41 C 695.84 443.29, 695.47 447.47, 696.40 454.22 C 697.33 460.97, 698.56 464.32, 702.21 469.18 C 705.86 474.03, 708.84 476.08, 714.65 478.51 C 720.46 480.94, 724.27 481.36, 731.25 481.33 C 738.22 481.30, 742.39 480.46, 749.53 478.38 C 756.66 476.30, 760.60 474.52, 766.92 470.93 C 773.25 467.34, 776.42 464.88, 781.15 460.42 C 785.88 455.95, 787.95 453.25, 790.57 448.61 C 793.18 443.97, 794.05 441.53, 794.23 437.23 C 794.42 432.93, 793.66 430.47, 791.50 427.09 C 789.34 423.72, 787.21 422.28, 783.43 420.35 C 779.65 418.42, 777.07 418.06, 772.60 417.45 C 768.14 416.83, 765.50 417.04, 761.09 417.29 C 756.68 417.53, 754.12 417.77, 750.56 418.67 C 747.01 419.57, 745.35 420.44, 743.31 421.79 C 741.27 423.15, 740.72 424.28, 740.36 425.44 C 740.01 426.60, 740.47 427.19, 741.52 427.58 C 742.58 427.98, 743.51 427.80, 745.66 427.40 C 747.80 427.00, 749.07 426.34, 752.25 425.59 C 755.44 424.84, 757.67 424.05, 761.58 423.64 C 765.50 423.24, 767.99 423.14, 771.83 423.58 C 775.67 424.01, 777.79 424.48, 780.78 425.82 C 783.78 427.17, 785.13 428.04, 786.81 430.29 C 788.50 432.55, 789.23 433.85, 789.22 437.10 C 789.21 440.35, 788.91 442.43, 786.76 446.54 C 784.61 450.65, 782.82 453.40, 778.49 457.66 C 774.17 461.91, 771.13 464.36, 765.14 467.81 C 759.15 471.27, 755.31 472.97, 748.53 474.94 C 741.74 476.91, 737.73 477.62, 731.23 477.66 C 724.74 477.69, 721.30 477.23, 716.05 475.11 C 710.81 472.98, 708.31 471.31, 705.03 467.04 C 701.74 462.77, 700.54 459.96, 699.63 453.76 C 698.72 447.56, 698.90 443.58, 700.48 436.03 C 702.06 428.49, 703.69 423.94, 707.52 416.04 C 711.35 408.15, 714.18 403.78, 719.63 396.56 C 725.08 389.35, 728.55 385.65, 734.78 379.96 C 741.01 374.26, 744.66 371.73, 750.76 368.11 C 756.87 364.48, 760.18 363.35, 765.32 361.83 C 770.46 360.30, 773.12 360.38, 776.48 360.48 C 779.84 360.59, 780.70 361.44, 782.12 362.35 C 783.55 363.25, 783.29 363.85, 783.60 365.02 C 783.92 366.19, 783.44 366.80, 783.71 368.20 C 783.97 369.60, 783.88 371.08, 784.91 372.03 C 785.94 372.97, 787.46 373.59, 788.86 372.93" style="stroke: black; fill: black;"/></svg>