<svg width="100%" height="100%" viewBox="0 0 24 24" xmlns="http://www.w3.org/2000/svg" xmlns:xlink="http://www.w3.org/1999/xlink">
  <path fill="#001487" fill-rule="evenodd" d="M10.0794918,7.9606081 C10.0279543,7.80901973 10,7.64653104 10,7.47751327 L10,2.5 C10,1.67157288 10.6715729,1 11.5,1 C17.8512746,1 23,6.14872538 23,12.5 C23,18.8512746 17.8512746,24 11.5,24 C5.14872538,24 0,18.8512746 0,12.5 L0,2.5 C0,1.67157288 0.671572875,1 1.5,1 C2.32842712,1 3,1.67157288 3,2.5 L3,12.5 C3,17.1944204 6.80557963,21 11.5,21 C16.1944204,21 20,17.1944204 20,12.5 C20,8.31740556 16.9790164,4.84039965 13,4.13193315 L13,6.16698487 C15.8695323,6.84210788 18.0056217,9.41878789 18.0056217,12.4943783 C18.0056217,16.0842292 15.0954726,18.9943783 11.5056217,18.9943783 C7.91577081,18.9943783 5.00562168,16.0842292 5.00562168,12.4943783 L5.00562168,7.49437832 C5.00562168,6.66595119 5.67719456,5.99437832 6.50562168,5.99437832 C7.33404881,5.99437832 8.00562168,6.66595119 8.00562168,7.49437832 L8.00562168,12.4943783 C8.00562168,14.4273749 9.57262506,15.9943783 11.5056217,15.9943783 C13.4386183,15.9943783 15.0056217,14.4273749 15.0056217,12.4943783 C15.0056217,10.5613817 13.4386183,8.99437832 11.5056217,8.99437832 C10.8399608,8.99437832 10.275573,8.56077702 10.0794918,7.9606081 Z M11.5,14 C10.6715729,14 10,13.3284271 10,12.5 C10,11.6715729 10.6715729,11 11.5,11 C12.3284271,11 13,11.6715729 13,12.5 C13,13.3284271 12.3284271,14 11.5,14 Z"/>
</svg>
